<svg width="355" height="28" viewBox="0 0 355 28" fill="none" xmlns="http://www.w3.org/2000/svg">
<path fill-rule="evenodd" clip-rule="evenodd" d="M114.769 14.0275C114.769 17.278 116.625 20.1912 119.861 20.1912C123.133 20.1912 124.972 17.3284 124.972 13.876C124.972 10.8445 123.31 7.69515 119.879 7.69515C116.484 7.69515 114.769 10.693 114.769 14.0275M127.165 13.775C127.165 19.0125 123.823 21.7914 119.756 21.7914C115.529 21.7914 112.576 18.6756 112.576 14.0783C112.576 9.24457 115.723 6.09519 119.985 6.09519C124.353 6.07839 127.165 9.26168 127.165 13.775" fill="#4C4C4C"/>
<path fill-rule="evenodd" clip-rule="evenodd" d="M138.818 10.6089C138.823 8.88163 139.48 7.42594 141.683 7.42594C142.62 7.42594 143.486 7.69536 143.999 8.0155L144.6 6.51656C143.982 6.09532 142.797 5.8091 141.754 5.8091C138.535 5.8091 136.731 7.71216 136.731 10.6089H131.904C131.904 9.66563 132.098 8.65545 132.664 8.0659C133.018 7.69536 133.478 7.47634 134.15 7.47634C134.698 7.47634 135.246 7.67856 135.599 7.86367L136.166 6.39865C135.741 6.19643 134.928 5.92701 134.15 5.92701C132.876 5.92701 131.886 6.33114 131.214 6.9879C130.206 7.91439 129.835 9.2447 129.835 10.6257H128.226V12.1415H129.835V21.5557H131.904V12.1415H136.731V21.5557H138.818V12.1415H143.398V21.5389H145.502V10.6089H138.818Z" fill="#4C4C4C"/>
<path fill-rule="evenodd" clip-rule="evenodd" d="M156.572 21.1346C156.024 21.404 154.821 21.7745 153.283 21.7745C149.817 21.7745 147.571 19.5346 147.571 16.2001C147.571 12.832 149.994 10.4069 153.725 10.4069C154.963 10.4069 156.041 10.6931 156.607 10.9793L156.13 12.5118C155.635 12.2424 154.857 11.9898 153.707 11.9898C151.073 11.9898 149.658 13.8425 149.658 16.1161C149.658 18.6423 151.355 20.2084 153.637 20.2084C154.821 20.2084 155.599 19.9222 156.201 19.6696L156.572 21.1346Z" fill="#4C4C4C"/>
<path fill-rule="evenodd" clip-rule="evenodd" d="M158.27 21.5388V10.6257H160.356V21.5556H158.27V21.5388ZM160.586 7.56063C160.604 8.23418 160.091 8.77334 159.26 8.77334C158.517 8.77334 158.004 8.23418 158.004 7.56063C158.004 6.85316 158.552 6.31432 159.313 6.31432C160.091 6.31432 160.586 6.85316 160.586 7.56063V7.56063Z" fill="#4C4C4C"/>
<path fill-rule="evenodd" clip-rule="evenodd" d="M169.162 15.9644C166.881 15.914 164.3 16.3013 164.3 18.4231C164.3 19.7033 165.202 20.3264 166.263 20.3264C167.748 20.3264 168.703 19.4168 169.039 18.4906C169.11 18.2884 169.162 18.0696 169.162 17.8506V15.9644ZM169.463 21.5388L169.304 20.1578H169.233C168.597 21.0168 167.359 21.7747 165.732 21.7747C163.415 21.7747 162.231 20.2253 162.231 18.6421C162.231 15.998 164.689 14.5497 169.127 14.5833V14.3643C169.127 13.4552 168.862 11.8384 166.528 11.8384C165.467 11.8384 164.353 12.1582 163.539 12.6467L163.062 11.3332C164.017 10.7436 165.378 10.3563 166.828 10.3563C170.33 10.3563 171.196 12.6299 171.196 14.8192V18.9115C171.196 19.8548 171.249 20.781 171.391 21.522H169.463V21.5388Z" fill="#4C4C4C"/>
<mask id="mask0_5_216" style="mask-type:alpha" maskUnits="userSpaceOnUse" x="42" y="5" width="313" height="17">
<path fill-rule="evenodd" clip-rule="evenodd" d="M42.4667 21.8387H354.407V5.77791H42.4667V21.8387Z" fill="white"/>
</mask>
<g mask="url(#mask0_5_216)">
<path fill-rule="evenodd" clip-rule="evenodd" d="M173.884 21.5387H175.971V6.29117H173.884V21.5387Z" fill="#4C4C4C"/>
<path fill-rule="evenodd" clip-rule="evenodd" d="M257.412 8.63V10.6392H260.399V12.1518H257.412V18.0218C257.412 19.3764 257.815 20.1439 258.977 20.1439C259.545 20.1439 259.86 20.0982 260.06 20.0425L260.473 21.4717C260.085 21.6466 259.237 21.7922 258.431 21.7922C257.459 21.7922 256.677 21.4761 256.179 20.9568C255.61 20.3471 255.373 19.3764 255.373 18.0896V12.1518H253.595V10.6392H255.373V8.63H257.412Z" fill="#4C4C4C"/>
<path fill-rule="evenodd" clip-rule="evenodd" d="M192.648 15.2234L191.092 10.8448C190.739 9.85109 190.509 8.94171 190.261 8.06593H190.208C189.978 8.97531 189.713 9.90149 189.395 10.8109L187.838 15.2066H192.648V15.2234ZM187.396 16.7559L185.734 21.5389H183.612L189.041 6.33118H191.534L196.981 21.5389H194.77L193.073 16.7559H187.396Z" fill="#4C4C4C"/>
<path fill-rule="evenodd" clip-rule="evenodd" d="M206.547 21.1346C205.999 21.404 204.797 21.7745 203.258 21.7745C199.792 21.7745 197.547 19.5346 197.547 16.2001C197.547 12.832 199.969 10.4069 203.701 10.4069C204.938 10.4069 206.017 10.6931 206.583 10.9793L206.105 12.5118C205.61 12.2424 204.832 11.9898 203.683 11.9898C201.048 11.9898 199.633 13.8425 199.633 16.1161C199.633 18.6423 201.331 20.2084 203.612 20.2084C204.797 20.2084 205.575 19.9222 206.176 19.6696L206.547 21.1346Z" fill="#4C4C4C"/>
<path fill-rule="evenodd" clip-rule="evenodd" d="M216.238 21.1346C215.69 21.404 214.487 21.7745 212.949 21.7745C209.483 21.7745 207.237 19.5346 207.237 16.2001C207.237 12.832 209.66 10.4069 213.391 10.4069C214.629 10.4069 215.707 10.6931 216.273 10.9793L215.796 12.5118C215.301 12.2424 214.523 11.9898 213.373 11.9898C210.738 11.9898 209.324 13.8425 209.324 16.1161C209.324 18.6423 211.021 20.2084 213.302 20.2084C214.487 20.2084 215.265 19.9222 215.866 19.6696L216.238 21.1346Z" fill="#4C4C4C"/>
<path fill-rule="evenodd" clip-rule="evenodd" d="M219.032 16.0991C219.032 18.4906 220.482 20.2926 222.515 20.2926C224.514 20.2926 225.999 18.5074 225.999 16.0487C225.999 14.196 225.026 11.8552 222.569 11.8552C220.093 11.872 219.032 14.0277 219.032 16.0991M228.121 15.998C228.121 20.04 225.186 21.7915 222.409 21.7915C219.297 21.7915 216.91 19.619 216.91 16.1666C216.91 12.512 219.421 10.3731 222.604 10.3731C225.893 10.3731 228.121 12.6467 228.121 15.998" fill="#4C4C4C"/>
<path fill-rule="evenodd" clip-rule="evenodd" d="M239.792 18.5748C239.792 19.7032 239.81 20.6969 239.881 21.5558H238.024L237.9 19.7704H237.847C237.299 20.6462 236.096 21.8085 234.063 21.8085C232.259 21.8085 230.101 20.8652 230.101 17.0254V10.6259H232.188V16.6717C232.188 18.7434 232.86 20.1409 234.752 20.1409C236.149 20.1409 237.122 19.2147 237.493 18.339C237.617 18.0527 237.688 17.6822 237.688 17.3285V10.6259H239.774V18.5748H239.792Z" fill="#4C4C4C"/>
<path fill-rule="evenodd" clip-rule="evenodd" d="M242.586 13.573C242.586 12.4446 242.568 11.5184 242.497 10.609H244.355L244.478 12.411H244.531C245.097 11.3669 246.423 10.3564 248.315 10.3564C249.907 10.3564 252.365 11.2655 252.365 15.0044V21.5219H250.278V15.2234C250.278 13.4551 249.589 11.9897 247.626 11.9897C246.247 11.9897 245.186 12.9162 244.832 14.0275C244.743 14.2801 244.69 14.6171 244.69 14.9537V21.5219H242.604V13.573H242.586Z" fill="#4C4C4C"/>
<path fill-rule="evenodd" clip-rule="evenodd" d="M262.144 19.5178C262.763 19.9052 263.841 20.3093 264.885 20.3093C266.405 20.3093 267.113 19.5853 267.113 18.6928C267.113 17.7495 266.529 17.2274 264.973 16.6886C262.904 15.9811 261.932 14.9034 261.932 13.5896C261.932 11.8216 263.417 10.3898 265.892 10.3898C267.06 10.3898 268.068 10.71 268.704 11.0637L268.192 12.5119C267.749 12.2425 266.918 11.872 265.84 11.872C264.602 11.872 263.912 12.5455 263.912 13.3541C263.912 14.2635 264.602 14.6676 266.087 15.2065C268.085 15.9307 269.093 16.8737 269.093 18.5073C269.093 20.4272 267.537 21.7746 264.796 21.7746C263.54 21.7746 262.374 21.4881 261.578 21.0336L262.144 19.5178Z" fill="#4C4C4C"/>
<path fill-rule="evenodd" clip-rule="evenodd" d="M46.4853 21.551L42.4667 6.46552H44.6289L46.5088 14.0977C46.9789 16.0001 47.402 17.8578 47.6839 19.3128H47.7309C47.9893 17.813 48.4829 16.0225 49.0235 14.0753L51.1387 6.46552H53.2774L55.2044 14.1201C55.6509 15.9329 56.074 17.7013 56.3088 19.2904H56.3559C56.6848 17.6341 57.1314 15.9556 57.625 14.0753L59.7166 6.46552H61.8083L57.3196 21.551H55.1809L53.1833 13.7172C52.6897 11.77 52.3608 10.2928 52.1491 8.77085H52.102C51.8436 10.2928 51.4676 11.7476 50.8803 13.6948L48.624 21.551H46.4853Z" fill="#4C4C4C"/>
<path fill-rule="evenodd" clip-rule="evenodd" d="M69.7397 15.0496C69.7603 13.7939 69.2001 11.824 66.8539 11.824C64.7185 11.824 63.8087 13.6626 63.6418 15.0496H69.7397ZM63.6163 16.4825C63.6578 19.1758 65.4525 20.2865 67.5533 20.2865C69.0501 20.2865 69.9661 20.0305 70.7396 19.7253L71.1062 21.1405C70.3741 21.4591 69.0955 21.8386 67.2681 21.8386C63.7333 21.8386 61.6077 19.5958 61.6077 16.3093C61.6077 12.9891 63.6614 10.396 67.0205 10.396C70.7736 10.396 71.7546 13.532 71.7546 15.5486C71.7546 15.967 71.7298 16.2663 71.6834 16.4825H63.6163Z" fill="#4C4C4C"/>
<path fill-rule="evenodd" clip-rule="evenodd" d="M74.0066 21.6009H76.0881V10.6452H74.0066V21.6009ZM76.3446 7.54806C76.3462 8.22566 75.8451 8.78628 75.0134 8.78628C74.2565 8.78628 73.7489 8.22566 73.7505 7.54806C73.7489 6.86361 74.2849 6.30797 75.0516 6.30797C75.8323 6.30797 76.339 6.85179 76.3446 7.54806V7.54806Z" fill="#4C4C4C"/>
<path fill-rule="evenodd" clip-rule="evenodd" d="M80.2277 10.6451L81.8774 12.9924C82.3096 13.6075 82.6676 14.1628 83.0498 14.7757H83.1024C83.4846 14.1326 83.8678 13.5636 84.2666 12.9719L85.8647 10.6451H88.1429L84.218 15.9393L88.2484 21.6009H85.8823L84.1794 19.1378C83.7335 18.5016 83.353 17.8859 82.9482 17.2297H82.8953C82.5173 17.8968 82.1244 18.4726 81.6762 19.1397L80.0236 21.6009H77.7134L81.8068 16.0093L77.8999 10.6451H80.2277Z" fill="#4C4C4C"/>
<path fill-rule="evenodd" clip-rule="evenodd" d="M89.9679 21.6009H92.0494V10.6452H89.9679V21.6009ZM92.3055 7.54806C92.3072 8.22566 91.8061 8.78628 90.9747 8.78628C90.2175 8.78628 89.7102 8.22566 89.7118 7.54806C89.7102 6.86361 90.2462 6.30797 91.0129 6.30797C91.7936 6.30797 92.3 6.85179 92.3055 7.54806V7.54806Z" fill="#4C4C4C"/>
<path fill-rule="evenodd" clip-rule="evenodd" d="M94.9867 13.6041C94.9867 12.4608 94.9475 11.5533 94.8916 10.6452H96.7402L96.8558 12.4468H96.914C97.4795 11.4177 98.8178 10.396 100.718 10.396C102.298 10.396 104.772 11.3016 104.772 15.0651V21.6009H102.69V15.2841C102.69 13.5133 101.989 12.0296 100.031 12.0296C98.6581 12.0296 97.5873 12.9592 97.2119 14.0745C97.1253 14.3178 97.0682 14.6709 97.0682 14.9985V21.6009H94.9867V13.6041Z" fill="#4C4C4C"/>
<path fill-rule="evenodd" clip-rule="evenodd" d="M306.939 8.63V10.6392H309.926V12.1518H306.939V18.0218C306.939 19.3764 307.342 20.1439 308.504 20.1439C309.073 20.1439 309.388 20.0982 309.587 20.0425L310.001 21.4717C309.612 21.6466 308.765 21.7922 307.959 21.7922C306.987 21.7922 306.204 21.4761 305.707 20.9568C305.138 20.3471 304.901 19.3764 304.901 18.0896V12.1518H303.123V10.6392H304.901V8.63H306.939Z" fill="#4C4C4C"/>
<path fill-rule="evenodd" clip-rule="evenodd" d="M279.683 13.8534C280.144 13.9803 280.72 14.0248 281.4 14.0248C283.911 14.0248 285.428 12.8513 285.428 10.765C285.428 8.74372 283.913 7.75563 281.642 7.75563C280.728 7.75563 280.049 7.83652 279.683 7.91149V13.8534ZM277.614 6.49998C278.614 6.33074 279.922 6.1954 281.599 6.1954C283.632 6.1954 285.136 6.6434 286.093 7.46443C286.963 8.19523 287.503 9.30154 287.503 10.6611C287.503 12.0449 287.07 13.1369 286.257 13.9281C285.152 15.0446 283.381 15.6006 281.358 15.6006C280.729 15.6006 280.161 15.5785 279.683 15.4584V21.583H277.614V6.49998Z" fill="#4C4C4C"/>
<path fill-rule="evenodd" clip-rule="evenodd" d="M288.828 21.5829H290.91V6.19534H288.828V21.5829Z" fill="#4C4C4C"/>
<path fill-rule="evenodd" clip-rule="evenodd" d="M299.741 15.9887C297.477 15.9429 294.885 16.3303 294.885 18.4486C294.885 19.7562 295.788 20.3567 296.838 20.3567C298.353 20.3567 299.308 19.4482 299.642 18.5217C299.714 18.3099 299.741 18.0846 299.741 17.8942V15.9887ZM300.066 21.5831L299.882 20.1992H299.819C299.187 21.0545 297.947 21.8323 296.3 21.8323C293.976 21.8323 292.786 20.2611 292.786 18.6885C292.786 16.0347 295.256 14.5771 299.7 14.6073V14.3746C299.7 13.4842 299.437 11.835 297.08 11.8471C296.01 11.8471 294.891 12.1514 294.083 12.6638L293.609 11.3388C294.562 10.7533 295.954 10.3781 297.406 10.3781C300.922 10.3781 301.779 12.6679 301.779 14.8624V18.9613C301.779 19.8971 301.824 20.8305 301.953 21.5831H300.066Z" fill="#4C4C4C"/>
<path fill-rule="evenodd" clip-rule="evenodd" d="M317.424 7.37962C318.039 7.37962 318.448 7.49629 318.768 7.62913L319.044 6.09878C318.642 5.92829 318.016 5.77771 317.257 5.77771C316.296 5.77771 315.245 6.06642 314.46 6.78882C313.496 7.6842 313.123 9.08202 313.123 10.6273H311.517V12.1368H313.123V21.5831H315.204V12.1368H317.973V10.6273H315.194C315.194 8.93611 315.657 7.37962 317.424 7.37962" fill="#4C4C4C"/>
<path fill-rule="evenodd" clip-rule="evenodd" d="M320.276 16.1272C320.276 18.5305 321.722 20.3396 323.763 20.3396C325.769 20.3396 327.268 18.5545 327.268 16.0678C327.268 14.2148 326.287 11.8712 323.801 11.8712C321.344 11.8712 320.276 14.0499 320.276 16.1272M329.397 15.9996C329.397 20.0572 326.442 21.832 323.677 21.832C320.556 21.832 318.146 19.6664 318.146 16.1885C318.146 12.522 320.677 10.3782 323.859 10.3782C327.166 10.3782 329.397 12.663 329.397 15.9996" fill="#4C4C4C"/>
<path fill-rule="evenodd" clip-rule="evenodd" d="M331.373 14.0394C331.373 12.7458 331.339 11.6432 331.278 10.6274H333.112L333.192 12.7766H333.266C333.803 11.3066 335.072 10.3782 336.469 10.3782C336.696 10.3782 336.86 10.3919 337.051 10.4345V12.3083C336.838 12.2657 336.627 12.2505 336.34 12.2505C334.865 12.2505 333.824 13.3089 333.54 14.7994C333.485 15.0791 333.455 15.4058 333.455 15.7296V21.5832H331.373V14.0394Z" fill="#4C4C4C"/>
<path fill-rule="evenodd" clip-rule="evenodd" d="M337.967 13.5864C337.967 12.443 337.927 11.5355 337.872 10.6274H339.69L339.8 12.3911H339.858C340.498 11.3492 341.571 10.3782 343.49 10.3782C345.049 10.3782 346.239 11.2826 346.732 12.5746H346.78C347.148 11.9512 347.602 11.4776 348.078 11.1482C348.774 10.6498 349.524 10.3782 350.609 10.3782C352.145 10.3782 354.406 11.3208 354.406 15.1316V21.5832H352.364V15.3871C352.364 13.2644 351.543 12.0084 349.868 12.0084C348.669 12.0084 347.748 12.8394 347.379 13.8016C347.279 14.0891 347.208 14.4466 347.208 14.8009V21.5832H345.165V15.0081C345.165 13.2634 344.356 12.0084 342.775 12.0084C341.471 12.0084 340.515 12.9996 340.167 13.997C340.064 14.2895 340.009 14.637 340.009 14.9786V21.5832H337.967V13.5864Z" fill="#4C4C4C"/>
</g>
<path fill-rule="evenodd" clip-rule="evenodd" d="M0 10.4118C0 13.5353 1.78805 16.3889 4.5514 18.2785C4.79522 18.4327 4.91714 18.6641 4.91714 18.9726C4.91714 19.0497 4.8765 19.1654 4.8765 19.2425C4.67331 20.0138 4.30757 21.2863 4.26694 21.3249C4.2263 21.4406 4.18566 21.5177 4.18566 21.6334C4.18566 21.8647 4.38885 22.0576 4.63267 22.0576C4.71395 22.0576 4.79522 22.019 4.8765 21.9804L7.76176 20.3994C7.96495 20.2837 8.20877 20.2066 8.4526 20.2066C8.57451 20.2066 8.73706 20.2066 8.85897 20.2451C10.2 20.6308 11.663 20.8236 13.1665 20.8236C20.4407 20.8236 26.3331 16.1575 26.3331 10.4118C26.3331 4.66602 20.4407 0 13.1665 0C5.89244 0 0 4.66602 0 10.4118" fill="url(#paint0_linear_5_216)"/>
<path fill-rule="evenodd" clip-rule="evenodd" d="M25.4342 26.951C26.6909 26.951 27.9071 26.7956 29.0017 26.4848C29.0828 26.4459 29.2044 26.4459 29.326 26.4459C29.5287 26.4459 29.7314 26.5236 29.8936 26.6013L32.2854 27.9223C32.3665 27.9611 32.407 28 32.4881 28C32.6908 28 32.8529 27.8446 32.8529 27.6503C32.8529 27.5726 32.8124 27.4949 32.8124 27.3784C32.8124 27.3395 32.4881 26.2905 32.3259 25.63C32.2854 25.5523 32.2854 25.4746 32.2854 25.3969C32.2854 25.1638 32.407 24.9695 32.6097 24.8141C34.9205 23.2212 36.3799 20.8512 36.3799 18.2093C36.3799 13.3917 31.4746 9.46762 25.4342 9.46762C19.3938 9.46762 14.4885 13.3528 14.4885 18.2093C14.4885 23.0269 19.3938 26.951 25.4342 26.951Z" fill="url(#paint1_linear_5_216)"/>
<path fill-rule="evenodd" clip-rule="evenodd" d="M10.4697 7.05035C10.4697 7.9498 9.72208 8.66186 8.77766 8.66186C7.83324 8.66186 7.08557 7.9498 7.08557 7.05035C7.08557 6.15091 7.83324 5.43884 8.77766 5.43884C9.72208 5.43884 10.4697 6.15091 10.4697 7.05035" fill="#168743"/>
<path fill-rule="evenodd" clip-rule="evenodd" d="M19.2475 7.05035C19.2475 7.9498 18.4998 8.66186 17.5554 8.66186C16.6109 8.66186 15.8633 7.9498 15.8633 7.05035C15.8633 6.15091 16.6109 5.43884 17.5554 5.43884C18.4998 5.43884 19.2475 6.15091 19.2475 7.05035" fill="#168743"/>
<path fill-rule="evenodd" clip-rule="evenodd" d="M27.7079 15.5108C27.7079 16.2942 28.3659 16.9209 29.1885 16.9209C30.011 16.9209 30.669 16.2942 30.669 15.5108C30.669 14.7274 30.011 14.1007 29.1885 14.1007C28.3659 14.1007 27.7079 14.7274 27.7079 15.5108" fill="#919191"/>
<path fill-rule="evenodd" clip-rule="evenodd" d="M20.4108 15.5108C20.4108 16.2942 21.0688 16.9209 21.8913 16.9209C22.7139 16.9209 23.3719 16.2942 23.3719 15.5108C23.3719 14.7274 22.7139 14.1007 21.8913 14.1007C21.0688 14.1007 20.4108 14.7274 20.4108 15.5108" fill="#919191"/>
<defs>
<linearGradient id="paint0_linear_5_216" x1="25.52" y1="20.7673" x2="25.52" y2="0.09629" gradientUnits="userSpaceOnUse">
<stop stop-color="#05CD66"/>
<stop offset="1" stop-color="#61F380"/>
<stop offset="1" stop-color="#9EEE69"/>
</linearGradient>
<linearGradient id="paint1_linear_5_216" x1="35.6957" y1="26.8019" x2="35.6957" y2="9.46094" gradientUnits="userSpaceOnUse">
<stop stop-color="#E4E6E6"/>
<stop offset="1" stop-color="#F0F0F0"/>
</linearGradient>
</defs>
</svg>
