<?xml version="1.0" encoding="UTF-8"?>
<svg width="18px" height="14px" viewBox="0 0 18 14" version="1.1" xmlns="http://www.w3.org/2000/svg" xmlns:xlink="http://www.w3.org/1999/xlink">
    <!-- Generator: Sketch 57.1 (83088) - https://sketch.com -->
    <title>Icon / Edit备份 5</title>
    <desc>Created with Sketch.</desc>
    <g id="图片全屏预览" stroke="none" stroke-width="1" fill="none" fill-rule="evenodd">
        <g id="素材库_图文消息_卡片-copy-2备份-71" transform="translate(-696.000000, -727.000000)">
            <g id="编组-9" transform="translate(681.000000, 716.000000)">
                <g id="1.图标Icon/common-preview" transform="translate(14.000000, 8.000000)">
                    <rect id="矩形" x="0" y="0" width="20.0938786" height="20.0938786"></rect>
                    <path d="M10.0469393,3.34897977 C14.0974655,3.34897977 16.959717,6.22534301 18.4193887,10.0469393 C16.9974525,13.955378 14.0971698,16.7448988 10.0469393,16.7448988 C5.99670885,16.7448988 2.94789574,13.955378 1.67448988,10.0469553 C3.05857907,6.22534301 5.9964131,3.34897977 10.0469393,3.34897977 Z M10.0469393,4.60484718 C6.95700599,4.60484718 4.4203849,6.63047868 3.04778696,9.97572713 L3.01073281,10.0661959 L3.04182258,10.1507376 C4.26132401,13.3762219 6.75954016,15.3891432 9.81662157,15.4854157 L10.0469393,15.4890314 C13.0770256,15.4890314 15.5179968,13.6183496 16.9293293,10.3929923 L17.0697499,10.056149 L17.0365448,9.97699994 C15.6233469,6.67728817 13.2320229,4.70511163 10.275474,4.60856513 L10.0469393,4.60484718 Z M10.0469393,6.69795953 C11.8965298,6.69795953 13.3959191,8.19734885 13.3959191,10.0469393 C13.3959191,11.8965298 11.8965298,13.3959191 10.0469393,13.3959191 C8.19734885,13.3959191 6.69795953,11.8965298 6.69795953,10.0469393 C6.69795953,8.19734885 8.19734885,6.69795953 10.0469393,6.69795953 Z M10.0469393,7.95382695 C8.89094527,7.95382695 7.95382695,8.89094527 7.95382695,10.0469393 C7.95382695,11.2029333 8.89094527,12.1400517 10.0469393,12.1400517 C11.2029333,12.1400517 12.1400517,11.2029333 12.1400517,10.0469393 C12.1400517,8.89094527 11.2029333,7.95382695 10.0469393,7.95382695 Z" id="形状结合" fill="#FFFFFF" fill-rule="evenodd"></path>
                </g>
            </g>
        </g>
    </g>
</svg>